@startuml Renderer

' Events:
' - Request Render
' - Done Rendering

state Unitialized
state Idle
state Rendering {
    Rendering: entry / Start Rendering
    Rendering: Request Render / Save Next
}

[*] -> Unitialized

Unitialized -d-> Rendering : Request Render

Rendering -l-> Idle : Done Rendering
Rendering -> Rendering : Done Rendering [Has Next]

Idle -> Rendering : Request Render

@enduml