@startuml Renderer

' Events:
' - Request Render
' - Done Rendering

state Idle
state Rendering {
    Rendering: entry / Start Rendering
    Rendering: Request Render / Save Next
}

[*] --> Idle

Rendering -l-> Idle : Done Rendering
Rendering -> Rendering : Done Rendering [Has Next]

Idle -> Rendering : Request Render

@enduml